<svg width="55" height="55" viewBox="0 0 55 55" fill="none" xmlns="http://www.w3.org/2000/svg">
<path d="M52.8 0H2.2C0.983125 0 0 0.983125 0 2.2V52.8C0 54.0169 0.983125 55 2.2 55H52.8C54.0169 55 55 54.0169 55 52.8V2.2C55 0.983125 54.0169 0 52.8 0ZM50.6 50.6H37.9431V33.7013H45.0931L46.1656 25.4031H37.9431V20.1025C37.9431 17.6963 38.61 16.06 42.0544 16.06H46.4475V8.635C45.6844 8.53188 43.0788 8.305 40.04 8.305C33.7013 8.305 29.3631 12.1756 29.3631 19.2775V25.3962H22.1994V33.6944H29.37V50.6H4.4V4.4H50.6V50.6Z" fill="black"/>
</svg>
