<svg width="105" height="29" viewBox="0 0 105 29" fill="none" xmlns="http://www.w3.org/2000/svg">
<path d="M10.4852 3.03906V13.918H11.2469C12.4188 13.918 13.3758 13.7422 14.118 13.3906C14.8602 13.0391 15.4852 12.4466 15.993 11.6133C16.5138 10.7799 16.8523 9.65365 17.0086 8.23438H17.6922V21.5352H17.0086C16.7612 19.0221 16.0841 17.3685 14.9773 16.5742C13.8836 15.7669 12.6401 15.3633 11.2469 15.3633H10.4852V23.4688C10.4852 24.8229 10.5568 25.6693 10.7 26.0078C10.8563 26.3464 11.1492 26.6458 11.5789 26.9062C12.0216 27.1536 12.6141 27.2773 13.3563 27.2773H14.2352V28H0.387501V27.2773H1.26641C2.03464 27.2773 2.65313 27.1406 3.12188 26.8672C3.46042 26.6849 3.72083 26.3724 3.90313 25.9297C4.04635 25.6172 4.11797 24.7969 4.11797 23.4688V6.04688C4.11797 4.69271 4.04635 3.84635 3.90313 3.50781C3.7599 3.16927 3.46693 2.8763 3.02422 2.62891C2.59453 2.36849 2.00859 2.23828 1.26641 2.23828H0.387501V1.51562H22.7313V9.11328H21.9305C21.7482 7.32943 21.2794 6.00781 20.5242 5.14844C19.782 4.28906 18.7013 3.68359 17.282 3.33203C16.5008 3.13672 15.0555 3.03906 12.9461 3.03906H10.4852ZM54.0312 12.1602H62.1562V12.9219C61.2448 13.0521 60.5286 13.3255 60.0078 13.7422C59.487 14.1458 58.8099 15.0964 57.9766 16.5938C57.1432 18.0911 55.9714 19.7643 54.4609 21.6133C55.7891 22.8112 56.8698 23.6445 57.7031 24.1133C58.2891 24.4388 58.862 24.6016 59.4219 24.6016C60.3854 24.6016 61.2578 23.9701 62.0391 22.707L62.8398 23.1367C61.7721 25.2331 60.6328 26.724 59.4219 27.6094C58.4974 28.2734 57.4427 28.6055 56.2578 28.6055C55.2422 28.6055 54.2721 28.3906 53.3477 27.9609C52.4362 27.5182 51.3229 26.6979 50.0078 25.5C48.3802 26.5938 46.8503 27.388 45.418 27.8828C43.9857 28.3646 42.4948 28.6055 40.9453 28.6055C38.4714 28.6055 36.5052 27.9349 35.0469 26.5938C33.5885 25.2526 32.8594 23.6771 32.8594 21.8672C32.8594 19.9141 33.556 18.2148 34.9492 16.7695C36.3424 15.3242 38.3672 14.0742 41.0234 13.0195C40.6849 12.1732 40.431 11.3464 40.2617 10.5391C40.0924 9.73177 40.0078 8.95052 40.0078 8.19531C40.0078 6.11198 40.737 4.38021 42.1953 3C43.6667 1.60677 45.5417 0.910156 47.8203 0.910156C49.6562 0.910156 51.1081 1.3724 52.1758 2.29688C53.2565 3.20833 53.7969 4.27604 53.7969 5.5C53.7969 6.97135 53.2435 8.23438 52.1367 9.28906C51.043 10.3307 49.3047 11.2878 46.9219 12.1602C48.3932 14.7513 50.5482 17.5443 53.3867 20.5391C55.3008 18.3906 56.2578 16.5482 56.2578 15.0117C56.2578 14.4648 56.069 14.0026 55.6914 13.625C55.3138 13.2344 54.7604 13 54.0312 12.9219V12.1602ZM46.2578 10.9883C47.625 10.4805 48.543 9.9401 49.0117 9.36719C49.4805 8.78125 49.7148 8.07812 49.7148 7.25781C49.7148 5.79948 49.3307 4.56901 48.5625 3.56641C48.0547 2.90234 47.4297 2.57031 46.6875 2.57031C46.0755 2.57031 45.5482 2.8112 45.1055 3.29297C44.6758 3.77474 44.4609 4.42578 44.4609 5.24609C44.4609 5.88411 44.5651 6.56771 44.7734 7.29688C44.9818 8.02604 45.4766 9.25651 46.2578 10.9883ZM41.5703 14.2695C40.5286 14.7122 39.793 15.181 39.3633 15.6758C38.7513 16.4049 38.4453 17.2188 38.4453 18.1172C38.4453 19.3411 38.7969 20.5586 39.5 21.7695C40.2161 22.9805 41.0755 23.918 42.0781 24.582C43.0807 25.2461 44.0833 25.5781 45.0859 25.5781C45.5807 25.5781 46.1341 25.474 46.7461 25.2656C47.3711 25.0443 48.0482 24.7188 48.7773 24.2891C45.6393 21.0729 43.237 17.7331 41.5703 14.2695ZM100.976 0.910156V10.2461H100.253C99.3807 7.69401 98.0721 5.75391 96.3273 4.42578C94.5826 3.09766 92.675 2.43359 90.6047 2.43359C88.6255 2.43359 86.9784 2.99349 85.6633 4.11328C84.3482 5.22005 83.4172 6.76953 82.8703 8.76172C82.3234 10.7539 82.05 12.7982 82.05 14.8945C82.05 17.4336 82.3495 19.6602 82.9484 21.5742C83.5474 23.4883 84.5109 24.8945 85.8391 25.793C87.1802 26.6914 88.7688 27.1406 90.6047 27.1406C91.2427 27.1406 91.8938 27.0755 92.5578 26.9453C93.2349 26.8021 93.925 26.6003 94.6281 26.3398V20.832C94.6281 19.7904 94.5565 19.1198 94.4133 18.8203C94.2701 18.5078 93.9706 18.2279 93.5148 17.9805C93.0721 17.7331 92.5318 17.6094 91.8938 17.6094H91.2102V16.8867H104.081V17.6094C103.105 17.6745 102.421 17.8112 102.03 18.0195C101.653 18.2148 101.36 18.5469 101.152 19.0156C101.034 19.263 100.976 19.8685 100.976 20.832V26.3398C99.2831 27.0951 97.5188 27.6615 95.6828 28.0391C93.8599 28.4297 91.9654 28.625 89.9992 28.625C87.4862 28.625 85.3964 28.2865 83.7297 27.6094C82.076 26.9193 80.6112 26.0208 79.3352 24.9141C78.0721 23.7943 77.0826 22.5378 76.3664 21.1445C75.455 19.3477 74.9992 17.3359 74.9992 15.1094C74.9992 11.125 76.399 7.75911 79.1984 5.01172C81.9979 2.26432 85.5201 0.890625 89.7648 0.890625C91.08 0.890625 92.2648 0.994792 93.3195 1.20312C93.8925 1.30729 94.8169 1.60677 96.093 2.10156C97.382 2.58333 98.1438 2.82422 98.3781 2.82422C98.7427 2.82422 99.0813 2.69401 99.3938 2.43359C99.7063 2.16016 99.9927 1.65234 100.253 0.910156H100.976Z" fill="white"/>
</svg>
