<svg width="60" height="60" viewBox="0 0 60 60" fill="none" xmlns="http://www.w3.org/2000/svg">
<path d="M50 50H10C8.67392 50 7.40215 49.4732 6.46447 48.5355C5.52678 47.5979 5 46.3261 5 45V14.7825C5.05608 13.4945 5.60752 12.2779 6.5392 11.3868C7.47087 10.4956 8.71076 9.99878 10 10H50C51.3261 10 52.5979 10.5268 53.5355 11.4645C54.4732 12.4021 55 13.6739 55 15V45C55 46.3261 54.4732 47.5979 53.5355 48.5355C52.5979 49.4732 51.3261 50 50 50ZM10 19.67V45H50V19.67L30 33L10 19.67ZM12 15L30 27L48 15H12Z" fill="black"/>
</svg>
