<svg width="60" height="60" viewBox="0 0 60 60" fill="none" xmlns="http://www.w3.org/2000/svg">
<path d="M26.3856 15.6001L17.9281 5.83758C16.9531 4.71258 15.1656 4.71758 14.0331 5.85258L7.07808 12.8201C5.00808 14.8926 4.41558 17.9701 5.61308 20.4376C12.7671 35.25 24.7132 47.2128 39.5156 54.3876C41.9806 55.5851 45.0556 54.9926 47.1256 52.9201L54.1456 45.8876C55.2831 44.7501 55.2856 42.9526 54.1506 41.9776L44.3506 33.5651C43.3256 32.6851 41.7331 32.8001 40.7056 33.8301L37.2956 37.2451C37.121 37.428 36.8912 37.5486 36.6415 37.5884C36.3917 37.6281 36.1358 37.5848 35.9131 37.4651C30.3392 34.2553 25.7156 29.6256 22.5131 24.0476C22.3931 23.8245 22.3497 23.5681 22.3895 23.318C22.4292 23.0678 22.5499 22.8376 22.7331 22.6626L26.1331 19.2601C27.1631 18.2251 27.2756 16.6251 26.3856 15.5976V15.6001Z" stroke="black" stroke-width="5" stroke-linecap="round" stroke-linejoin="round"/>
</svg>
