<svg width="39" height="39" viewBox="0 0 39 39" fill="none" xmlns="http://www.w3.org/2000/svg">
<path fill-rule="evenodd" clip-rule="evenodd" d="M2.4375 19.5C2.4375 24.0253 4.23515 28.3652 7.43499 31.565C10.6348 34.7648 14.9747 36.5625 19.5 36.5625C24.0253 36.5625 28.3652 34.7648 31.565 31.565C34.7648 28.3652 36.5625 24.0253 36.5625 19.5C36.5625 14.9747 34.7648 10.6348 31.565 7.43499C28.3652 4.23515 24.0253 2.4375 19.5 2.4375C14.9747 2.4375 10.6348 4.23515 7.43499 7.43499C4.23515 10.6348 2.4375 14.9747 2.4375 19.5ZM39 19.5C39 24.6717 36.9455 29.6316 33.2886 33.2886C29.6316 36.9455 24.6717 39 19.5 39C14.3283 39 9.36838 36.9455 5.71142 33.2886C2.05446 29.6316 0 24.6717 0 19.5C0 14.3283 2.05446 9.36838 5.71142 5.71142C9.36838 2.05446 14.3283 0 19.5 0C24.6717 0 29.6316 2.05446 33.2886 5.71142C36.9455 9.36838 39 14.3283 39 19.5ZM20.7188 28.0312C20.7188 28.3545 20.5903 28.6645 20.3618 28.893C20.1332 29.1216 19.8232 29.25 19.5 29.25C19.1768 29.25 18.8668 29.1216 18.6382 28.893C18.4097 28.6645 18.2812 28.3545 18.2812 28.0312V13.9108L13.0504 19.1441C12.8215 19.373 12.5111 19.5015 12.1875 19.5015C11.8639 19.5015 11.5535 19.373 11.3246 19.1441C11.0958 18.9153 10.9672 18.6049 10.9672 18.2812C10.9672 17.9576 11.0958 17.6472 11.3246 17.4184L18.6371 10.1059C18.7503 9.99238 18.8848 9.90233 19.0329 9.84089C19.181 9.77945 19.3397 9.74782 19.5 9.74782C19.6603 9.74782 19.819 9.77945 19.9671 9.84089C20.1152 9.90233 20.2497 9.99238 20.3629 10.1059L27.6754 17.4184C27.9042 17.6472 28.0328 17.9576 28.0328 18.2812C28.0328 18.6049 27.9042 18.9153 27.6754 19.1441C27.4465 19.373 27.1361 19.5015 26.8125 19.5015C26.4889 19.5015 26.1785 19.373 25.9496 19.1441L20.7188 13.9108V28.0312Z" fill="white"/>
</svg>
